<?xml version="1.0" encoding="utf-8"?>

<!-- Uploaded to: SVG Repo, www.svgrepo.com, Generator: SVG Repo Mixer Tools -->
<svg version="1.1" id="Icons" xmlns="http://www.w3.org/2000/svg" xmlns:xlink="http://www.w3.org/1999/xlink" 
	 viewBox="0 0 32 32" xml:space="preserve">
<style type="text/css">
	.st0{fill:#FFFFFF;}
	.st1{fill:#3A559F;}
	.st2{fill:#F4F4F4;}
	.st3{fill:#FF0084;}
	.st4{fill:#0063DB;}
	.st5{fill:#00ACED;}
	.st6{fill:#FFEC06;}
	.st7{fill:#FF0000;}
	.st8{fill:#25D366;}
	.st9{fill:#0088FF;}
	.st10{fill:#314358;}
	.st11{fill:#EE6996;}
	.st12{fill:#01AEF3;}
	.st13{fill:#FFFEFF;}
	.st14{fill:#F06A35;}
	.st15{fill:#00ADEF;}
	.st16{fill:#1769FF;}
	.st17{fill:#1AB7EA;}
	.st18{fill:#6001D1;}
	.st19{fill:#E41214;}
	.st20{fill:#05CE78;}
	.st21{fill:#7B519C;}
	.st22{fill:#FF4500;}
	.st23{fill:#00F076;}
	.st24{fill:#FFC900;}
	.st25{fill:#00D6FF;}
	.st26{fill:#FF3A44;}
	.st27{fill:#FF6A36;}
	.st28{fill:#0061FE;}
	.st29{fill:#F7981C;}
	.st30{fill:#EE1B22;}
	.st31{fill:#EF3561;}
	.st32{fill:none;stroke:#FFFFFF;stroke-width:2;stroke-miterlimit:10;}
	.st33{fill:#0097D3;}
	.st34{fill:#01308A;}
	.st35{fill:#019CDE;}
	.st36{fill:#FFD049;}
	.st37{fill:#16A05D;}
	.st38{fill:#4486F4;}
	.st39{fill:none;}
	.st40{fill:#34A853;}
	.st41{fill:#4285F4;}
	.st42{fill:#FBBC05;}
	.st43{fill:#EA4335;}
</style>
<g>
	<path d="M12,26H7c-0.8,0-1.6-0.4-2.1-1c-0.5-0.6-0.7-1.4-0.5-2.2L8.7,4l0,0c0.3-1.2,1.3-2,2.6-2h8.6c2.3,0,4.4,1,5.9,2.8
		c1.4,1.8,2,4.1,1.5,6.4c-0.8,4-4.4,6.8-8.5,6.8h-3.2c-0.5,0-1,0.4-1.1,0.9L13,25.2C12.9,25.7,12.5,26,12,26z"/>
</g>
<g>
	<g>
		<path class="st34" d="M12,26H7c-0.8,0-1.6-0.4-2.1-1c-0.5-0.6-0.7-1.4-0.5-2.2L8.7,4l0,0c0.3-1.2,1.3-2,2.6-2h8.6
			c2.3,0,4.4,1,5.9,2.8c1.4,1.8,2,4.1,1.5,6.4c-0.8,4-4.4,6.8-8.5,6.8h-3.2c-0.5,0-1,0.4-1.1,0.9L13,25.2C12.9,25.7,12.5,26,12,26z"
			/>
	</g>
</g>
<path class="st35" d="M29.3,11.3c0,0.1,0,0.2,0,0.3c-1,4.9-5.4,8.4-10.4,8.4h-2.5l-1.4,5.7C14.6,27.1,13.4,28,12,28h-2
	c0.1,0.4,0.2,0.7,0.5,1c0.5,0.6,1.2,0.9,2,0.9H17c0.5,0,0.9-0.3,1-0.7l1.4-5.5c0.1-0.4,0.5-0.6,0.9-0.6h2.9c3.7,0,7-2.5,7.7-6
	C31.3,15,30.7,12.8,29.3,11.3z"/>
</svg>